<svg width="433" height="433" viewBox="0 0 433 433" fill="none" xmlns="http://www.w3.org/2000/svg">
<g clip-path="url(#clip0_1894_3138)">
<mask id="mask0_1894_3138" style="mask-type:luminance" maskUnits="userSpaceOnUse" x="0" y="0" width="433" height="433">
<path d="M433 0H0V433H433V0Z" fill="white"/>
</mask>
<g mask="url(#mask0_1894_3138)">
<path d="M433 216.5C433 96.9303 336.07 0 216.5 0C96.9303 0 0 96.9303 0 216.5C0 336.07 96.9303 433 216.5 433C336.07 433 433 336.07 433 216.5Z" fill="black"/>
<path d="M207.962 107.323C207.978 107.297 207.988 107.269 207.991 107.237C207.993 107.202 208.011 107.183 208.045 107.178C209.437 106.987 210.613 106.882 211.574 106.863C212.71 106.841 214.243 106.926 216.173 107.119C216.265 107.128 216.336 107.171 216.386 107.248C216.459 107.359 216.573 107.424 216.706 107.431C218.551 107.522 220.022 107.661 221.116 107.85C223.392 108.241 225.736 108.646 228.036 109.279C229.892 109.792 231.684 110.373 233.558 110.509C237.797 110.817 241.96 109.939 245.954 108.517C249.741 107.169 253.431 105.585 257.023 103.765C259.86 102.327 262.63 100.91 265.334 99.5119C266.699 98.8049 268.022 98.0959 269.3 97.3841C276.429 93.4188 282.769 90.0603 288.323 87.3074C290.504 86.2262 293.163 84.9773 296.3 83.5599C300.112 81.8367 304.055 80.2732 308.129 78.87C309.381 78.439 310.812 77.9938 312.422 77.5358C319.354 75.5616 326.83 74.3336 334.024 74.9554C338.57 75.3471 342.856 76.4648 346.882 78.3071C349.464 79.489 352.049 81.102 354.641 83.1465C357.573 85.4604 360.431 88.3777 363.213 91.8979C364.239 93.1928 364.937 94.6515 365.307 96.2739C365.585 97.4917 365.731 98.9693 365.748 100.706C365.772 103.19 365.613 105.32 365.271 107.094C363.846 114.507 360.674 121.673 356.467 127.707C351.891 134.271 346.337 139.696 339.806 143.982C338.592 144.78 337.277 145.582 335.861 146.39C333.741 147.601 331.715 148.822 329.535 149.975C322.678 153.6 317.332 156.237 311.123 159.317C310.657 159.547 310.181 159.807 309.697 160.097C308.635 160.732 307.513 161.232 306.627 162.087C306.119 162.578 305.675 163.12 305.295 163.71C304.288 165.283 303.436 167.222 302.739 169.529C301.997 171.983 301.515 173.667 301.295 174.579C300.39 178.304 299.536 182.298 298.731 186.562C297.944 190.729 297.204 194.831 296.511 198.869C295.194 206.541 293.962 213.515 292.814 219.791C292.49 221.562 292.193 223.336 291.845 225.087C291.525 226.697 291.322 228.323 290.981 229.904C290.655 231.43 290.405 233.009 290.084 234.49C289.821 235.707 289.594 236.889 289.404 238.035C289.332 238.471 289.233 238.918 289.105 239.377C288.718 240.747 288.601 242.206 288.219 243.54C287.866 244.775 287.794 246.073 287.45 247.305C287.309 247.812 287.185 248.329 287.076 248.859C286.965 249.412 286.854 249.939 286.741 250.442C286.055 253.525 285.288 256.836 284.44 260.373C283.784 263.11 283.175 265.159 282.392 268.216C282.085 269.418 281.746 270.637 281.378 271.873C281.033 273.022 280.78 274.171 280.424 275.317C280.175 276.12 280.008 276.957 279.734 277.755C279.624 278.073 279.52 278.394 279.423 278.718C276.717 287.611 273.85 295.765 270.823 303.18C268.457 308.978 265.594 314.997 262.234 321.237C261.816 322.015 261.353 322.768 260.932 323.55C259.966 325.337 258.757 327.382 257.305 329.688C255.132 333.134 252.651 336.609 249.863 340.11C248.61 341.684 247.204 343.26 245.868 344.751C241.474 349.658 236.574 353.948 231.169 357.621C228.685 359.309 226.081 360.823 223.358 362.161C217.007 365.282 210.395 367.356 203.52 368.385C201.603 368.671 200.445 368.837 200.045 368.882C198.867 369.013 197.696 369.093 196.533 369.122C194.558 369.169 192.867 369.056 190.973 368.491C189.279 367.984 187.883 367.467 186.785 366.937C185.391 366.266 183.983 365.601 182.654 364.821C178.549 362.416 174.604 359.524 170.82 356.144C170.703 356.041 170.574 355.941 170.433 355.843C170.174 355.669 170.064 355.352 169.792 355.165C169.662 355.074 169.535 354.974 169.412 354.864C168.771 354.286 168.14 353.682 167.521 353.05C167.397 352.923 167.311 352.724 167.154 352.638C166.848 352.468 166.637 352.236 166.52 351.944C166.475 351.831 166.395 351.757 166.279 351.72C165.951 351.613 165.752 351.388 165.681 351.044C165.648 350.887 165.554 350.797 165.398 350.775C165.077 350.727 164.897 350.534 164.858 350.196C164.85 350.134 164.829 350.073 164.796 350.02C164.763 349.966 164.719 349.92 164.667 349.884C164.607 349.845 164.54 349.824 164.466 349.821C164.411 349.818 164.357 349.803 164.307 349.777C164.258 349.751 164.215 349.714 164.181 349.67C164.102 349.561 164.039 349.439 163.994 349.303C163.873 348.937 163.587 348.853 163.365 348.586C161.081 345.845 159.335 343.344 158.127 341.083C156.872 338.731 155.821 336.092 154.65 333.62C151.252 326.468 148.137 318.939 145.939 311.395C145.521 309.959 145.004 307.971 144.388 305.432C144.149 304.445 143.958 303.475 143.814 302.521C143.619 301.214 143.257 299.95 143.101 298.638C142.947 297.326 142.774 295.991 142.582 294.636C141.891 289.776 141.893 284.908 141.878 280.023C141.875 278.875 141.799 277.65 141.651 276.346C141.372 273.896 141.128 271.37 140.917 268.766C140.426 262.647 139.927 256.46 139.422 250.204C139.297 248.651 139.16 247.128 139.011 245.634C138.698 242.511 138.461 239.435 138.082 236.326C137.783 233.875 137.549 231.536 137.151 229.094C136.98 228.057 136.807 226.99 136.633 225.894C136.323 223.941 135.911 222.094 135.396 220.356C134.911 218.71 134.532 217.283 134.26 216.076C133.332 211.93 132.319 207.595 131.22 203.073C130.505 200.13 129.793 197.155 129.085 194.149C128.895 193.34 128.69 192.545 128.472 191.765C128.287 191.111 128.086 190.338 127.869 189.445C125.84 181.108 123.783 172.78 121.695 164.461C121.043 161.863 120.473 159.681 119.984 157.917C119.894 157.595 119.772 157.288 119.618 156.994C119.151 156.111 118.669 155.226 118.171 154.339C117.963 153.972 117.721 153.627 117.447 153.308C114.181 149.52 110.291 146.309 106.418 143.164C103.343 140.665 100.261 138.133 97.1727 135.565C93.8663 132.814 90.7967 129.821 87.9626 126.587C87.2543 125.778 86.5865 124.899 85.9228 124.039C85.2097 123.115 84.3877 121.883 83.4581 120.344C80.0861 114.767 78.7296 108.704 79.3879 102.155C79.4745 101.295 79.6057 100.45 79.781 99.6202C80.0083 98.5465 80.1206 97.4788 80.4196 96.4227C81.2146 93.617 82.2748 90.837 83.6002 88.0827C85.1272 84.9144 87.1535 82.5065 90.131 80.7874C91.8718 79.7833 93.9292 79.0053 96.0056 78.617C97.7823 78.2841 99.5339 77.8274 101.336 77.8639C102.965 77.8984 104.517 77.9106 105.991 77.8998C106.994 77.8924 107.972 77.9593 108.926 78.1007C110.535 78.3396 112.043 78.5588 113.451 78.759C115.11 78.9945 116.909 79.5032 118.556 79.9349C121.603 80.7326 124.629 81.8117 127.635 83.1736C128.34 83.4943 128.991 83.8251 129.589 84.1661C130.478 84.6749 131.407 85.0795 132.272 85.6336C135.451 87.6673 138.474 89.8026 141.343 92.0379C143.42 93.6569 145.611 95.4667 147.914 97.4673C150.971 100.126 153.869 102.688 156.607 105.154C159.425 107.693 162.26 110.164 165.112 112.569C165.472 112.87 165.861 113.241 166.338 113.329C167.129 113.475 167.752 113.524 168.204 113.473C170.2 113.257 172.205 113.047 174.22 112.843C175.354 112.73 176.402 112.449 177.533 112.273C179.008 112.044 180.462 111.78 181.894 111.482C185.315 110.767 189.318 109.959 193.904 109.06C195.928 108.662 197.888 108.453 199.868 108.087C202.481 107.608 205.047 107.542 207.649 107.508C207.709 107.508 207.77 107.49 207.824 107.458C207.879 107.426 207.926 107.379 207.962 107.323ZM269.08 135.129C269.213 135.139 269.338 135.194 269.436 135.286C269.533 135.377 269.597 135.499 269.616 135.631C269.817 137.045 270.44 138.263 271.484 139.283C272.036 139.824 272.78 140.269 273.563 140.063C274.399 139.845 275.209 139.545 275.994 139.165C277.203 138.58 277.777 137.284 278.04 136.042C278.485 133.96 278.514 131.739 278.514 129.62C278.514 126.09 279.309 121.648 283.39 120.73C284.445 120.492 285.557 120.248 286.728 119.998C286.802 119.982 286.871 119.947 286.928 119.897C286.985 119.847 287.028 119.782 287.053 119.711C287.079 119.639 287.085 119.562 287.072 119.487C287.059 119.412 287.028 119.342 286.98 119.283C286.128 118.232 285.525 117.061 284.324 116.298C283.924 116.045 283.935 115.577 284.25 115.262C284.855 114.659 285.501 114.101 286.188 113.587C286.55 113.315 287.812 112.28 287.027 111.782C286.101 111.194 285.165 110.535 284.221 109.806C283.35 109.132 282.511 109.392 281.562 109.74C280.725 110.048 280.085 110.528 279.642 111.183C279.187 111.85 278.884 112.632 278.229 113.123C277.727 113.498 277.178 113.711 276.581 113.761C274.93 113.896 273.187 114.132 271.525 114.103C270.198 114.078 268.903 113.928 267.625 114.354C267.267 114.473 266.926 114.718 266.602 115.09C265.819 115.993 264.6 117.349 266.073 118.286C266.666 118.663 267.273 119.009 267.897 119.324C268.867 119.812 269.643 120.5 270.308 121.298C271.513 122.743 272.406 125.438 270.701 126.821C268.999 128.197 266.66 128.695 264.414 128.758C263.678 128.781 262.949 128.917 262.216 128.994C262.106 129.005 262.006 129.057 261.933 129.142C261.862 129.226 261.824 129.335 261.83 129.446C261.935 131.361 262.907 133.259 264.638 134.136C266.006 134.828 267.54 135.016 269.08 135.129ZM230.22 223.59C230.65 224.135 231.205 224.701 231.884 225.286C234.788 227.787 238.267 229.151 242.027 229.872C242.565 229.974 243.064 230.191 243.597 230.283C245.43 230.598 247.177 231.118 249.033 231.387C249.893 231.513 250.758 231.632 251.628 231.747C253.618 232.009 255.56 231.969 257.455 231.627C258.711 231.401 259.851 231.091 260.874 230.697C263.663 229.628 266.071 227.126 267.497 224.608C268.997 221.96 270.231 219.069 271.201 215.935C271.825 213.919 272.256 211.924 272.496 209.949C272.791 207.527 272.758 204.841 272.013 202.505C271.068 199.534 270.674 196.498 270.198 193.346C269.885 191.263 269.27 189.286 268.354 187.417C266.865 184.373 265.244 181.778 263.491 179.63C261.636 177.361 259.162 175.348 256.392 174.258C255.22 173.796 254.12 173.529 253.09 173.455C251.71 173.354 250.464 173.403 249.35 173.604C247.177 173.993 244.987 174.904 242.78 176.336C240.248 177.978 237.975 180.035 235.962 182.507C232.779 186.415 230.317 190.692 228.576 195.338C228.044 196.762 227.563 198.218 227.134 199.707C225.918 203.938 225.49 208.223 225.848 212.563C226.169 216.44 227.46 219.944 229.721 223.077C229.865 223.275 230.06 223.391 230.22 223.59ZM178.395 187.322C176.726 185.427 174.686 183.924 172.277 182.812C169.439 181.505 166.102 181.159 163.065 181.607C158.084 182.344 153.822 185.694 151.607 190.112C149.268 194.781 148.388 199.828 148.966 205.253C149.367 209.016 150.651 213.059 152.867 215.992C154.958 218.762 157.854 220.969 161.219 221.896C162.223 222.172 163.343 222.34 164.577 222.401C165.955 222.467 167.16 222.424 168.193 222.271C170.331 221.956 172.379 221.212 174.335 220.037C175.156 219.544 175.927 218.918 176.671 218.296C178.642 216.645 180.172 214.603 181.262 212.168C182.114 210.268 182.689 208.624 182.989 207.236C184.201 201.634 183.503 196.218 180.895 190.99C180.265 189.725 179.432 188.502 178.395 187.322ZM234.905 329.048C235.638 323.84 235.069 318.22 233 313.494C231.543 310.164 229.598 307.263 227.168 304.792C221.111 298.634 212.804 294.74 204.179 294.396C197.448 294.125 190.582 296.097 184.993 300.107C182.843 301.648 180.81 303.474 178.894 305.581C177.092 307.564 175.741 309.471 174.841 311.302C174.216 312.576 173.624 314.027 173.065 315.653C172.777 316.486 172.617 317.341 172.352 318.18C172.161 318.782 171.998 319.414 171.863 320.072C171.622 321.263 171.393 322.456 171.175 323.652C170.869 325.339 170.606 327.765 170.386 330.931C170.116 334.8 170.409 338.693 171.265 342.612C171.501 343.691 171.989 345.105 172.729 346.854C172.864 347.172 173.017 347.464 173.188 347.729C173.629 348.412 173.93 349.14 174.419 349.81C176.356 352.461 178.751 354.518 181.604 355.978C185.18 357.813 189.39 358.694 193.404 358.773C195.876 358.822 198.184 358.694 200.327 358.389C201.84 358.175 203.603 357.805 205.618 357.277C211.612 355.705 217.239 352.912 222.209 349.14C223.257 348.344 224.235 347.421 225.198 346.526C228.365 343.577 230.819 340.24 232.561 336.514C233.794 333.878 234.575 331.389 234.905 329.048Z" fill="white"/>
</g>
</g>
<defs>
<clipPath id="clip0_1894_3138">
<rect width="433" height="433" fill="white"/>
</clipPath>
</defs>
</svg>
